<svg width="1920" height="1080" xmlns="http://www.w3.org/2000/svg">
  <rect width="1920" height="1080" fill="transparent"/>
  <!-- Near layer: Dense, larger varied stars -->
  <circle cx="123" cy="234" r="1.5" fill="white" opacity="0.8"/>
  <circle cx="456" cy="123" r="1.2" fill="white" opacity="0.7"/>
  <circle cx="789" cy="456" r="1.8" fill="white" opacity="0.9"/>
  <circle cx="234" cy="678" r="1.3" fill="white" opacity="0.7"/>
  <circle cx="567" cy="890" r="1.6" fill="white" opacity="0.8"/>
  <circle cx="1023" cy="234" r="1.4" fill="white" opacity="0.7"/>
  <circle cx="890" cy="567" r="1.7" fill="white" opacity="0.9"/>
  <circle cx="1234" cy="789" r="1.2" fill="white" opacity="0.7"/>
  <circle cx="1567" cy="345" r="1.5" fill="white" opacity="0.8"/>
  <circle cx="1345" cy="123" r="1.3" fill="white" opacity="0.7"/>
  <circle cx="1678" cy="678" r="1.6" fill="white" opacity="0.9"/>
  <circle cx="345" cy="345" r="1.4" fill="white" opacity="0.7"/>
  <circle cx="678" cy="234" r="1.7" fill="white" opacity="0.8"/>
  <circle cx="1456" cy="456" r="1.2" fill="white" opacity="0.7"/>
  <circle cx="1789" cy="890" r="1.5" fill="white" opacity="0.9"/>
  <circle cx="1123" cy="678" r="1.3" fill="white" opacity="0.7"/>
  <circle cx="456" cy="789" r="1.6" fill="white" opacity="0.8"/>
  <circle cx="789" cy="123" r="1.4" fill="white" opacity="0.7"/>
  <circle cx="1234" cy="234" r="1.7" fill="white" opacity="0.9"/>
  <circle cx="234" cy="456" r="1.2" fill="white" opacity="0.7"/>
  <circle cx="567" cy="567" r="1.5" fill="white" opacity="0.8"/>
  <circle cx="1023" cy="890" r="1.3" fill="white" opacity="0.7"/>
  <circle cx="890" cy="345" r="1.6" fill="white" opacity="0.9"/>
  <circle cx="1345" cy="567" r="1.4" fill="white" opacity="0.7"/>
  <circle cx="1567" cy="789" r="1.7" fill="white" opacity="0.8"/>
  <circle cx="345" cy="123" r="1.2" fill="white" opacity="0.7"/>
  <circle cx="678" cy="678" r="1.5" fill="white" opacity="0.9"/>
  <circle cx="1456" cy="234" r="1.3" fill="white" opacity="0.7"/>
  <circle cx="1678" cy="456" r="1.6" fill="white" opacity="0.8"/>
  <circle cx="1789" cy="567" r="1.4" fill="white" opacity="0.7"/>
  <circle cx="1123" cy="345" r="1.7" fill="white" opacity="0.9"/>
  <circle cx="456" cy="456" r="1.2" fill="white" opacity="0.7"/>
  <circle cx="789" cy="789" r="1.5" fill="white" opacity="0.8"/>
  <circle cx="234" cy="567" r="1.3" fill="white" opacity="0.7"/>
  <circle cx="567" cy="234" r="1.6" fill="white" opacity="0.9"/>
  <circle cx="1023" cy="123" r="1.4" fill="white" opacity="0.7"/>
  <circle cx="890" cy="678" r="1.7" fill="white" opacity="0.8"/>
  <circle cx="1234" cy="890" r="1.2" fill="white" opacity="0.7"/>
  <circle cx="1345" cy="345" r="1.5" fill="white" opacity="0.9"/>
  <circle cx="1567" cy="456" r="1.3" fill="white" opacity="0.7"/>
  <circle cx="1678" cy="789" r="1.6" fill="white" opacity="0.8"/>
  <circle cx="345" cy="890" r="1.4" fill="white" opacity="0.7"/>
  <circle cx="678" cy="567" r="1.7" fill="white" opacity="0.9"/>
  <circle cx="1456" cy="678" r="1.2" fill="white" opacity="0.7"/>
  <circle cx="1789" cy="234" r="1.5" fill="white" opacity="0.8"/>
</svg>
